<svg width="28" height="27" viewBox="0 0 28 27" fill="none" xmlns="http://www.w3.org/2000/svg">
<path d="M19.0439 20.5921C17.717 21.6288 16.1259 22.2724 14.4515 22.4499C12.7771 22.6273 11.0864 22.3315 9.57171 21.596C8.05702 20.8605 6.77903 19.7149 5.88301 18.2892C4.98698 16.8636 4.50886 15.2152 4.50298 13.5314C4.49711 11.8476 4.96371 10.1959 5.84976 8.76407C6.73581 7.33223 8.00577 6.17767 9.51529 5.43162C11.0248 4.68557 12.7134 4.37795 14.389 4.54372C16.0646 4.7095 17.6602 5.34202 18.9942 6.36939" stroke="black" stroke-width="2" stroke-linecap="round"/>
<path d="M22.3363 13.5H13.0029" stroke="black" stroke-width="2" stroke-linecap="round" stroke-linejoin="round"/>
<path d="M25.488 13.3217L22.3635 10.253C21.8575 9.75598 21.0029 10.1145 21.0029 10.8237V16.1763C21.0029 16.8856 21.8575 17.2441 22.3635 16.7471L25.488 13.6784C25.5878 13.5804 25.5878 13.4196 25.488 13.3217Z" fill="black"/>
</svg>
