<svg id="Calque_1" data-name="Calque 1" xmlns="http://www.w3.org/2000/svg" viewBox="0 0 3084.39 431.41"><title>medisales_2</title><path d="M364.46,424.54l-.57-240.31L246,382.2H204.26L87,189.38V424.54H0V24H76.67l149.9,248.89L374.19,24h76.1l1.14,400.51Zm492.11-74.38v74.38H546.46V24H849.13V98.41H638.57v87h186v72.09h-186v92.69ZM930.32,24h181.94q65.23,0,115,25.18,50.34,24.6,77.81,69.8,28,45.19,28,105.28t-28,105.27q-27.46,45.21-77.81,70.38-49.79,24.6-115,24.6H930.32Zm177.36,324.41q60.09,0,95.56-33.18,36-33.76,36-91t-36-90.4q-35.48-33.76-95.56-33.76H1023V348.44ZM1403,24h92.69V424.54H1403Zm319.33,407.38a337.83,337.83,0,0,1-92.12-12.59q-44-13.15-70.94-33.76l31.47-69.8q25.74,18.89,61.22,30.32A229.93,229.93,0,0,0,1722.92,357q39.48,0,58.36-11.45,18.88-12,18.89-31.47,0-14.3-11.45-23.45-10.86-9.74-28.61-15.45-17.16-5.73-46.91-12.59-45.78-10.87-75-21.74A123.9,123.9,0,0,1,1587.9,206q-20.61-24-20.6-64.08,0-34.91,18.88-62.94,18.88-28.6,56.64-45.2,38.34-16.59,93.26-16.6a308,308,0,0,1,75,9.16q36.62,9.15,64.08,26.32L1846.51,123q-55.5-31.47-111-31.46-38.9,0-57.79,12.58-18.3,12.59-18.31,33.19t21.17,30.89q21.75,9.73,65.8,19.46,45.78,10.86,75,21.74a121.91,121.91,0,0,1,49.77,34.33q21.18,23.46,21.17,63.51a109.56,109.56,0,0,1-19.45,62.94q-18.88,28-57.22,44.62T1722.35,431.41Zm351.13-319.27q71.54,0,109.86,34.33,38.32,33.76,38.33,102.42V424.54h-83.53V386.21q-25.18,42.9-93.84,42.91-35.47,0-61.79-12-25.76-12-39.48-33.18t-13.73-48.06q0-42.92,32-67.52,32.61-24.6,100.13-24.6h70.94q0-29.18-17.73-44.63-17.73-16-53.21-16a152.94,152.94,0,0,0-48.64,8q-23.46,7.44-40,20.6l-32-62.37q25.18-17.73,60.08-27.46A273.67,273.67,0,0,1,2073.48,112.14ZM2066.62,369q22.88,0,40.62-10.3,17.73-10.86,25.17-31.47V295.81h-61.22q-54.92,0-54.92,36,0,17.16,13.16,27.47Q2043.15,369,2066.62,369ZM2302.46,0h89.26V424.54h-89.26Zm473.61,271.78q0,1.71-1.71,24H2541.49q6.3,28.6,29.75,45.2t58.36,16.59q24,0,42.34-6.87a106,106,0,0,0,34.9-22.88l47.49,51.49q-43.47,49.79-127,49.78-52,0-92.12-20-40-20.59-61.79-56.64t-21.74-81.82q0-45.19,21.17-81.25a150.33,150.33,0,0,1,58.93-56.64q37.77-20.59,84.11-20.6,45.23,0,81.82,19.46a139.58,139.58,0,0,1,57.21,56.07Q2776.1,223.71,2776.07,271.78Zm-159.63-92.12q-30.3,0-50.92,17.16t-25.18,46.92H2692q-4.56-29.18-25.18-46.35Q2646.2,179.66,2616.44,179.66Zm322.62,249.46a307.47,307.47,0,0,1-74.95-9.16q-36.62-9.72-58.36-24l29.75-64.08q20.6,13.17,49.78,21.74a215.57,215.57,0,0,0,57.21,8q56.64,0,56.65-28,0-13.17-15.45-18.88T2936.2,305q-37.77-5.71-62.37-13.16a98.83,98.83,0,0,1-42.91-26.32q-17.73-18.89-17.74-53.78,0-29.17,16.6-51.5,17.16-22.87,49.2-35.47,32.61-12.58,76.67-12.59a285.07,285.07,0,0,1,64.66,7.44q32.61,6.87,53.78,19.45l-29.75,63.51q-40.64-22.87-88.69-22.88-28.62,0-42.91,8t-14.3,20.6q0,14.29,15.44,20t49.21,10.87q37.76,6.3,61.79,13.73a90.64,90.64,0,0,1,41.77,25.75q17.73,18.89,17.74,52.64a81.24,81.24,0,0,1-17.17,50.92q-17.16,22.32-50.35,34.9Q2984.26,429.12,2939.06,429.12Z"/></svg>