<svg width="157" height="23" viewBox="0 0 157 23" fill="none" xmlns="http://www.w3.org/2000/svg">
<path d="M18.88 22L18.851 9.82L12.877 19.854H10.76L4.815 10.081V22H0.407V1.7H4.293L11.891 14.315L19.373 1.7H23.23L23.288 22H18.88ZM43.8223 18.23V22H28.1043V1.7H43.4453V5.47H32.7733V9.878H42.1983V13.532H32.7733V18.23H43.8223ZM47.5603 1.7H56.7823C58.9863 1.7 60.9293 2.12533 62.6113 2.976C64.3127 3.80733 65.6273 4.98667 66.5553 6.514C67.5027 8.04133 67.9763 9.82 67.9763 11.85C67.9763 13.88 67.5027 15.6587 66.5553 17.186C65.6273 18.7133 64.3127 19.9023 62.6113 20.753C60.9293 21.5843 58.9863 22 56.7823 22H47.5603V1.7ZM56.5503 18.143C58.5803 18.143 60.1947 17.5823 61.3933 16.461C62.6113 15.3203 63.2203 13.7833 63.2203 11.85C63.2203 9.91667 62.6113 8.38933 61.3933 7.268C60.1947 6.12733 58.5803 5.557 56.5503 5.557H52.2583V18.143H56.5503ZM71.5193 1.7H76.2173V22H71.5193V1.7ZM87.7049 22.348C86.1003 22.348 84.5439 22.1353 83.0359 21.71C81.5473 21.2653 80.3486 20.695 79.4399 19.999L81.0349 16.461C81.9049 17.099 82.9393 17.6113 84.1379 17.998C85.3366 18.3847 86.5353 18.578 87.7339 18.578C89.0679 18.578 90.0539 18.3847 90.6919 17.998C91.3299 17.592 91.6489 17.0603 91.6489 16.403C91.6489 15.9197 91.4556 15.5233 91.0689 15.214C90.7016 14.8853 90.2183 14.6243 89.6189 14.431C89.0389 14.2377 88.2463 14.025 87.2409 13.793C85.6943 13.4257 84.4279 13.0583 83.4419 12.691C82.4559 12.3237 81.6053 11.734 80.8899 10.922C80.1939 10.11 79.8459 9.02733 79.8459 7.674C79.8459 6.49467 80.1649 5.43133 80.8029 4.484C81.4409 3.51733 82.3979 2.75367 83.6739 2.193C84.9693 1.63233 86.5449 1.352 88.4009 1.352C89.6963 1.352 90.9626 1.50667 92.1999 1.816C93.4373 2.12533 94.5199 2.57 95.4479 3.15L93.9979 6.717C92.1226 5.65367 90.2473 5.122 88.3719 5.122C87.0573 5.122 86.0809 5.33467 85.4429 5.76C84.8243 6.18533 84.5149 6.746 84.5149 7.442C84.5149 8.138 84.8726 8.66 85.5879 9.008C86.3226 9.33667 87.4343 9.66533 88.9229 9.994C90.4696 10.3613 91.7359 10.7287 92.7219 11.096C93.7079 11.4633 94.5489 12.0433 95.2449 12.836C95.9603 13.6287 96.3179 14.7017 96.3179 16.055C96.3179 17.215 95.9893 18.2783 95.3319 19.245C94.6939 20.1923 93.7273 20.9463 92.4319 21.507C91.1366 22.0677 89.5609 22.348 87.7049 22.348ZM105.502 6.166C107.919 6.166 109.775 6.746 111.07 7.906C112.365 9.04667 113.013 10.777 113.013 13.097V22H108.779V20.057C107.928 21.507 106.343 22.232 104.023 22.232C102.824 22.232 101.78 22.029 100.891 21.623C100.021 21.217 99.3541 20.6563 98.8901 19.941C98.4261 19.2257 98.1941 18.4137 98.1941 17.505C98.1941 16.055 98.7354 14.9143 99.8181 14.083C100.92 13.2517 102.612 12.836 104.893 12.836H108.489C108.489 11.85 108.189 11.096 107.59 10.574C106.991 10.0327 106.092 9.762 104.893 9.762C104.062 9.762 103.24 9.89733 102.428 10.168C101.635 10.4193 100.959 10.7673 100.398 11.212L98.7741 8.051C99.6248 7.45167 100.64 6.98767 101.819 6.659C103.018 6.33033 104.245 6.166 105.502 6.166ZM105.154 19.187C105.927 19.187 106.614 19.013 107.213 18.665C107.812 18.2977 108.238 17.766 108.489 17.07V15.475H105.386C103.53 15.475 102.602 16.084 102.602 17.302C102.602 17.882 102.824 18.346 103.269 18.694C103.733 19.0227 104.361 19.187 105.154 19.187ZM117.108 0.481999H121.632V22H117.108V0.481999ZM141.113 14.257C141.113 14.315 141.084 14.721 141.026 15.475H129.223C129.436 16.4417 129.939 17.2053 130.731 17.766C131.524 18.3267 132.51 18.607 133.689 18.607C134.501 18.607 135.217 18.491 135.835 18.259C136.473 18.0077 137.063 17.621 137.604 17.099L140.011 19.709C138.542 21.391 136.396 22.232 133.573 22.232C131.814 22.232 130.258 21.8937 128.904 21.217C127.551 20.521 126.507 19.564 125.772 18.346C125.038 17.128 124.67 15.7457 124.67 14.199C124.67 12.6717 125.028 11.299 125.743 10.081C126.478 8.84367 127.474 7.88667 128.73 7.21C130.006 6.514 131.427 6.166 132.993 6.166C134.521 6.166 135.903 6.49467 137.14 7.152C138.378 7.80933 139.344 8.75667 140.04 9.994C140.756 11.212 141.113 12.633 141.113 14.257ZM133.022 9.588C131.998 9.588 131.137 9.878 130.441 10.458C129.745 11.038 129.32 11.8307 129.165 12.836H136.85C136.696 11.85 136.27 11.067 135.574 10.487C134.878 9.88767 134.028 9.588 133.022 9.588ZM149.374 22.232C148.079 22.232 146.812 22.0773 145.575 21.768C144.338 21.4393 143.352 21.0333 142.617 20.55L144.125 17.302C144.821 17.7467 145.662 18.114 146.648 18.404C147.634 18.6747 148.601 18.81 149.548 18.81C151.462 18.81 152.419 18.3363 152.419 17.389C152.419 16.9443 152.158 16.6253 151.636 16.432C151.114 16.2387 150.312 16.0743 149.229 15.939C147.953 15.7457 146.899 15.5233 146.068 15.272C145.237 15.0207 144.512 14.576 143.893 13.938C143.294 13.3 142.994 12.3913 142.994 11.212C142.994 10.226 143.274 9.356 143.835 8.602C144.415 7.82867 145.246 7.22933 146.329 6.804C147.431 6.37867 148.726 6.166 150.215 6.166C151.317 6.166 152.409 6.29167 153.492 6.543C154.594 6.775 155.503 7.10367 156.218 7.529L154.71 10.748C153.337 9.97467 151.839 9.588 150.215 9.588C149.248 9.588 148.523 9.72333 148.04 9.994C147.557 10.2647 147.315 10.6127 147.315 11.038C147.315 11.5213 147.576 11.8597 148.098 12.053C148.62 12.2463 149.451 12.43 150.592 12.604C151.868 12.8167 152.912 13.0487 153.724 13.3C154.536 13.532 155.242 13.967 155.841 14.605C156.44 15.243 156.74 16.1323 156.74 17.273C156.74 18.2397 156.45 19.1 155.87 19.854C155.29 20.608 154.439 21.1977 153.318 21.623C152.216 22.029 150.901 22.232 149.374 22.232Z" fill="black"/>
</svg>
