<svg width="27" height="27" viewBox="0 0 27 27" fill="none" xmlns="http://www.w3.org/2000/svg">
<path d="M15.3171 4.14158H14.4421V4.18522L14.4464 4.22864L15.3171 4.14158ZM15.3171 4.14157H16.1921V4.09793L16.1877 4.05451L15.3171 4.14157ZM15.7248 5.93387L15.1075 6.55391L15.7248 5.93387ZM16.4283 6.22524L16.4302 5.35024L16.4283 6.22524ZM17.9839 5.24625L17.4589 4.54625L17.4442 4.55734L17.4299 4.56904L17.9839 5.24625ZM17.9839 5.24624L18.5089 5.94624L18.5353 5.92646L18.5601 5.90475L17.9839 5.24624ZM17.984 5.24624L17.4299 4.56903L17.4187 4.5782L17.4078 4.58774L17.984 5.24624ZM18.8491 4.67802L18.6611 3.82346L18.6611 3.82346L18.8491 4.67802ZM19.3749 4.70425L19.1028 5.53586L19.3749 4.70425ZM20.1792 5.35574L19.5605 5.97445L19.5605 5.97446L20.1792 5.35574ZM21.1472 6.32366L21.7659 5.70494L21.7659 5.70494L21.1472 6.32366ZM21.7987 7.12799L22.6303 6.8559L22.6303 6.85589L21.7987 7.12799ZM21.8249 7.6538L22.6794 7.8418L22.6794 7.84179L21.8249 7.6538ZM21.2566 8.51896L21.9339 9.07305L21.2566 8.51896ZM20.2776 10.0747L19.4026 10.0766V10.0766L20.2776 10.0747ZM20.569 10.7781L19.9489 11.3955L19.9489 11.3955L20.569 10.7781ZM22.3613 11.1859L22.2743 12.0565H22.2743L22.3613 11.1859ZM23.3749 11.3958L22.9036 12.133L22.9036 12.133L23.3749 11.3958ZM23.7282 11.7862L22.9477 12.1818V12.1818L23.7282 11.7862ZM23.7282 15.2138L22.9478 14.8182L22.9477 14.8182L23.7282 15.2138ZM23.3748 15.6043L23.8461 16.3415L23.8461 16.3415L23.3748 15.6043ZM22.3614 15.8142L22.4485 16.6848H22.4485L22.3614 15.8142ZM20.5696 16.2218L19.9496 15.6042L20.5696 16.2218ZM20.278 16.9256L19.403 16.9239V16.9239L20.278 16.9256ZM21.2568 18.4807L20.5796 19.0348L20.6072 19.0686L20.6381 19.0995L21.2568 18.4807ZM21.2568 18.4808L21.934 17.9267L21.9064 17.8929L21.8755 17.862L21.2568 18.4808ZM21.8249 19.3456L22.6794 19.1575L22.6794 19.1575L21.8249 19.3456ZM21.7987 19.8717L22.6302 20.1439L22.6302 20.1439L21.7987 19.8717ZM21.1473 20.6758L20.5286 20.0571V20.0571L21.1473 20.6758ZM20.1793 21.6438L19.5606 21.0251L20.1793 21.6438ZM19.375 22.2953L19.1029 21.4637H19.1029L19.375 22.2953ZM18.8491 22.3215L19.0371 21.467L19.0371 21.467L18.8491 22.3215ZM17.984 21.7533L17.4299 22.4305H17.4299L17.984 21.7533ZM16.4283 20.7743L16.4302 21.6493H16.4302L16.4283 20.7743ZM15.7249 21.0657L15.1075 20.4456L15.7249 21.0657ZM15.3171 22.8582L14.4464 22.7711V22.7711L15.3171 22.8582ZM15.107 23.8721L14.3699 23.4007L14.3699 23.4007L15.107 23.8721ZM14.7169 24.2252L15.1126 25.0056L15.1126 25.0056L14.7169 24.2252ZM11.2891 24.2253L11.6847 23.4448L11.6847 23.4448L11.2891 24.2253ZM10.8987 23.872L10.1615 24.3434L10.1615 24.3434L10.8987 23.872ZM10.6888 22.8584L11.5594 22.7714V22.7714L10.6888 22.8584ZM10.281 21.0661L9.6636 21.6862H9.6636L10.281 21.0661ZM9.57758 20.7747L9.57568 21.6497H9.57568L9.57758 20.7747ZM8.02183 21.7538L7.46775 21.0766L7.46775 21.0766L8.02183 21.7538ZM7.15664 22.322L6.96866 21.4675L6.96865 21.4675L7.15664 22.322ZM6.63085 22.2958L6.90293 21.4642L6.90293 21.4642L6.63085 22.2958ZM5.82651 21.6443L5.16801 22.2205L5.18719 22.2424L5.2078 22.263L5.82651 21.6443ZM5.8265 21.6443L6.485 21.0681L6.46582 21.0462L6.44521 21.0256L5.8265 21.6443ZM4.8586 20.6764L5.47732 20.0577H5.47732L4.8586 20.6764ZM4.20709 19.8721L3.37547 20.1441L3.37547 20.1441L4.20709 19.8721ZM4.18087 19.3463L3.3263 19.1583L3.3263 19.1583L4.18087 19.3463ZM4.74911 18.4811L5.42633 19.0352H5.42633L4.74911 18.4811ZM5.72813 16.9254L6.60313 16.9235L5.72813 16.9254ZM5.43676 16.2219L4.81671 16.8393H4.81671L5.43676 16.2219ZM3.64447 15.8142L3.73154 14.9435H3.73153L3.64447 15.8142ZM2.63092 15.6042L2.15959 16.3414L2.15959 16.3414L2.63092 15.6042ZM2.27765 15.2139L1.4972 15.6095L2.27765 15.2139ZM2.2777 11.7861L1.4973 11.3904L1.4973 11.3904L2.2777 11.7861ZM2.63083 11.3959L3.10224 12.133L3.10224 12.133L2.63083 11.3959ZM3.6446 11.1859L3.73167 12.0565H3.73167L3.6446 11.1859ZM5.43728 10.7779L4.81714 10.1607L4.81714 10.1607L5.43728 10.7779ZM5.72854 10.0748L6.60354 10.0768V10.0768L5.72854 10.0748ZM4.7493 8.51866L4.07209 9.07274L4.07209 9.07274L4.7493 8.51866ZM4.18089 7.65316L5.03548 7.4653V7.4653L4.18089 7.65316ZM4.2071 7.12765L5.03876 7.39961L4.2071 7.12765ZM6.6309 4.70375L6.35882 3.87213L6.6309 4.70375ZM7.15669 4.67753L7.34467 3.82296L7.34467 3.82296L7.15669 4.67753ZM8.02197 5.24585L7.46788 5.92306L8.02197 5.24585ZM9.57744 6.22482L9.5757 5.34982H9.5757L9.57744 6.22482ZM10.2811 5.93333L9.66366 5.31338L9.66366 5.31338L10.2811 5.93333ZM10.6888 4.14143L11.5594 4.2285L11.5638 4.18508V4.14143H10.6888ZM10.6888 4.14143L9.81812 4.05436L9.81378 4.09779V4.14143H10.6888ZM10.8987 3.12811L10.1614 2.65686L10.1614 2.65686L10.8987 3.12811ZM11.2892 2.7747L10.8936 1.99421L10.8936 1.99421L11.2892 2.7747ZM14.7168 2.77475L15.1124 1.99431L15.1124 1.99431L14.7168 2.77475ZM15.1071 3.12802L15.8443 2.65669L15.8443 2.65668L15.1071 3.12802ZM16.1921 4.14158V4.14157H14.4421V4.14158H16.1921ZM16.3422 5.31382C16.406 5.37731 16.3712 5.40196 16.3224 5.15696C16.2753 4.92043 16.2409 4.58612 16.1877 4.05451L14.4464 4.22864C14.4959 4.72341 14.5384 5.15889 14.6061 5.49873C14.6721 5.8301 14.7899 6.2377 15.1075 6.55391L16.3422 5.31382ZM16.4302 5.35024C16.3972 5.35017 16.3656 5.33708 16.3422 5.31382L15.1075 6.55391C15.4579 6.90282 15.9319 7.09918 16.4264 7.10024L16.4302 5.35024ZM17.4299 4.56904C17.0164 4.90735 16.7556 5.11939 16.5551 5.25334C16.3473 5.39208 16.3402 5.35005 16.4302 5.35024L16.4264 7.10024C16.8746 7.1012 17.2461 6.89627 17.527 6.70861C17.8152 6.51616 18.1532 6.23832 18.538 5.92346L17.4299 4.56904ZM17.459 4.54624L17.4589 4.54625L18.5089 5.94625L18.5089 5.94624L17.459 4.54624ZM17.4078 4.58774L17.4078 4.58774L18.5601 5.90475L18.5601 5.90474L17.4078 4.58774ZM18.6611 3.82346C18.3897 3.88316 18.1718 4.00681 17.9908 4.13143C17.8195 4.24936 17.6292 4.40596 17.4299 4.56903L18.538 5.92345C18.7599 5.74194 18.8855 5.64011 18.9831 5.57291C19.071 5.51241 19.0751 5.52423 19.0371 5.53259L18.6611 3.82346ZM19.647 3.87263C19.3287 3.76847 18.9882 3.75149 18.6611 3.82346L19.0371 5.53259C19.0589 5.52779 19.0816 5.52892 19.1028 5.53586L19.647 3.87263ZM20.798 4.73702C20.6159 4.55493 20.4421 4.38017 20.2834 4.24578C20.1156 4.10375 19.9111 3.95904 19.647 3.87263L19.1028 5.53586C19.0659 5.52378 19.0711 5.51242 19.1526 5.58136C19.243 5.65794 19.3578 5.77176 19.5605 5.97445L20.798 4.73702ZM21.7659 5.70494L20.798 4.73702L19.5605 5.97446L20.5284 6.94238L21.7659 5.70494ZM22.6303 6.85589C22.5439 6.5918 22.3992 6.38729 22.2571 6.21954C22.1227 6.06081 21.948 5.88703 21.7659 5.70494L20.5284 6.94238C20.7311 7.14507 20.845 7.25989 20.9215 7.35034C20.9905 7.43177 20.9791 7.43703 20.967 7.40008L22.6303 6.85589ZM22.6794 7.84179C22.7514 7.51466 22.7344 7.17424 22.6303 6.8559L20.967 7.40008C20.974 7.4213 20.9751 7.444 20.9703 7.46581L22.6794 7.84179ZM21.9339 9.07305C22.0969 8.87374 22.2535 8.68344 22.3715 8.51212C22.4961 8.33108 22.6197 8.11318 22.6794 7.8418L20.9703 7.4658C20.9787 7.42784 20.9905 7.43194 20.93 7.51983C20.8628 7.61745 20.761 7.74302 20.5794 7.96488L21.9339 9.07305ZM21.1526 10.0728C21.1528 10.1628 21.1108 10.1556 21.2495 9.94785C21.3835 9.74729 21.5955 9.48655 21.9339 9.07305L20.5794 7.96488C20.2646 8.34972 19.9867 8.68775 19.7943 8.97591C19.6066 9.25688 19.4017 9.6284 19.4026 10.0766L21.1526 10.0728ZM21.1891 10.1607C21.1658 10.1373 21.1527 10.1057 21.1526 10.0728L19.4026 10.0766C19.4037 10.571 19.6001 11.0451 19.9489 11.3955L21.1891 10.1607ZM22.4484 10.3152C21.9168 10.262 21.5825 10.2276 21.3459 10.1805C21.1009 10.1317 21.1256 10.0969 21.1891 10.1607L19.9489 11.3955C20.2652 11.713 20.6728 11.8308 21.0042 11.8968C21.344 11.9645 21.7795 12.007 22.2743 12.0565L22.4484 10.3152ZM23.8463 10.6586C23.6122 10.5089 23.3707 10.4423 23.1545 10.4024C22.95 10.3647 22.7046 10.3408 22.4484 10.3152L22.2743 12.0565C22.5595 12.085 22.7203 12.1018 22.8369 12.1233C22.9418 12.1427 22.9363 12.154 22.9036 12.133L23.8463 10.6586ZM24.5086 11.3905C24.3572 11.0918 24.1285 10.8391 23.8463 10.6586L22.9036 12.133C22.9224 12.1451 22.9376 12.1619 22.9477 12.1818L24.5086 11.3905ZM24.7113 12.8156C24.7113 12.5581 24.712 12.3116 24.6947 12.1044C24.6766 11.8853 24.6343 11.6384 24.5086 11.3905L22.9477 12.1818C22.9302 12.1471 22.9419 12.1428 22.9507 12.2492C22.9606 12.3673 22.9613 12.529 22.9613 12.8156H24.7113ZM24.7113 14.1846V12.8156H22.9613V14.1846H24.7113ZM24.5087 15.6093C24.6343 15.3615 24.6766 15.1147 24.6948 14.8957C24.712 14.6884 24.7113 14.442 24.7113 14.1846H22.9613C22.9613 14.4712 22.9606 14.6328 22.9508 14.7509C22.9419 14.8572 22.9302 14.8529 22.9478 14.8182L24.5087 15.6093ZM23.8461 16.3415C24.1284 16.161 24.3572 15.9082 24.5087 15.6093L22.9477 14.8182C22.9377 14.8381 22.9224 14.855 22.9036 14.867L23.8461 16.3415ZM22.4485 16.6848C22.7047 16.6592 22.95 16.6354 23.1545 16.5976C23.3706 16.5578 23.612 16.4911 23.8461 16.3415L22.9036 14.867C22.9363 14.8461 22.9418 14.8573 22.8369 14.8767C22.7203 14.8982 22.5596 14.915 22.2744 14.9435L22.4485 16.6848ZM21.1895 16.8393C21.126 16.903 21.1014 16.8682 21.3463 16.8195C21.5828 16.7724 21.917 16.738 22.4485 16.6848L22.2744 14.9435C21.7797 14.993 21.3444 15.0355 21.0046 15.1032C20.6733 15.1691 20.2658 15.2868 19.9496 15.6042L21.1895 16.8393ZM21.153 16.9273C21.1531 16.8943 21.1662 16.8626 21.1895 16.8393L19.9496 15.6042C19.6005 15.9548 19.404 16.4291 19.403 16.9239L21.153 16.9273ZM21.934 17.9267C21.5958 17.5133 21.3838 17.2526 21.2499 17.0521C21.1112 16.8445 21.1532 16.8373 21.153 16.9272L19.403 16.9239C19.4022 17.3719 19.6071 17.7432 19.7947 18.0241C19.9871 18.3122 20.2648 18.6501 20.5796 19.0348L21.934 17.9267ZM21.8755 17.862L21.8755 17.862L20.6381 19.0995L20.6381 19.0995L21.8755 17.862ZM22.6794 19.1575C22.6197 18.8862 22.4961 18.6684 22.3715 18.4874C22.2536 18.3162 22.0971 18.1259 21.934 17.9267L20.5796 19.0348C20.7611 19.2566 20.8629 19.3821 20.93 19.4797C20.9905 19.5676 20.9787 19.5717 20.9704 19.5337L22.6794 19.1575ZM22.6302 20.1439C22.7345 19.8254 22.7515 19.4848 22.6794 19.1575L20.9704 19.5337C20.9752 19.5556 20.974 19.5783 20.9671 19.5995L22.6302 20.1439ZM21.7661 21.2945C21.9481 21.1124 22.1228 20.9387 22.2572 20.7801C22.3991 20.6124 22.5438 20.4079 22.6302 20.1439L20.9671 19.5995C20.9792 19.5626 20.9905 19.5678 20.9216 19.6492C20.845 19.7396 20.7313 19.8544 20.5286 20.057L21.7661 21.2945ZM21.7661 21.2945L21.7661 21.2945L20.5286 20.057L20.5286 20.0571L21.7661 21.2945ZM20.798 22.2625L21.7661 21.2945L20.5286 20.0571L19.5606 21.0251L20.798 22.2625ZM19.6471 23.1269C19.9112 23.0405 20.1157 22.8958 20.2834 22.7538C20.4421 22.6194 20.6159 22.4446 20.798 22.2625L19.5606 21.0251C19.3579 21.2278 19.2431 21.3416 19.1526 21.4182C19.0712 21.4871 19.0659 21.4758 19.1029 21.4637L19.6471 23.1269ZM18.6611 23.1761C18.9883 23.2481 19.3287 23.2311 19.6471 23.1269L19.1029 21.4637C19.0816 21.4706 19.059 21.4718 19.0371 21.467L18.6611 23.1761ZM17.4299 22.4305C17.6292 22.5936 17.8195 22.7502 17.9908 22.8681C18.1719 22.9928 18.3898 23.1164 18.6611 23.1761L19.0371 21.467C19.0751 21.4753 19.071 21.4872 18.9831 21.4267C18.8855 21.3595 18.7599 21.2576 18.5381 21.0761L17.4299 22.4305ZM16.4302 21.6493C16.3402 21.6495 16.3474 21.6075 16.5551 21.7462C16.7557 21.8802 17.0164 22.0922 17.4299 22.4305L18.5381 21.0761C18.1532 20.7612 17.8152 20.4834 17.5271 20.2909C17.2461 20.1033 16.8746 19.8984 16.4264 19.8993L16.4302 21.6493ZM16.3423 21.6857C16.3656 21.6625 16.3972 21.6494 16.4302 21.6493L16.4264 19.8993C15.932 19.9004 15.4579 20.0967 15.1075 20.4456L16.3423 21.6857ZM16.1878 22.9453C16.2409 22.4136 16.2754 22.0792 16.3225 21.8426C16.3713 21.5976 16.4061 21.6222 16.3423 21.6857L15.1075 20.4456C14.7899 20.7619 14.6721 21.1695 14.6062 21.5009C14.5385 21.8408 14.4959 22.2763 14.4464 22.7711L16.1878 22.9453ZM15.8442 24.3436C15.9939 24.1094 16.0606 23.8678 16.1005 23.6516C16.1383 23.447 16.1621 23.2016 16.1878 22.9453L14.4464 22.7711C14.4179 23.0565 14.4011 23.2174 14.3796 23.334C14.3602 23.4389 14.3489 23.4335 14.3699 23.4007L15.8442 24.3436ZM15.1126 25.0056C15.4112 24.8542 15.6638 24.6256 15.8442 24.3436L14.3699 23.4007C14.3579 23.4195 14.341 23.4347 14.3211 23.4448L15.1126 25.0056ZM13.6872 25.2084C13.9448 25.2084 14.1913 25.2091 14.3986 25.1918C14.6177 25.1736 14.8647 25.1313 15.1126 25.0056L14.3211 23.4448C14.3558 23.4273 14.3601 23.439 14.2538 23.4478C14.1356 23.4577 13.9739 23.4584 13.6872 23.4584V25.2084ZM12.3185 25.2084H13.6872V23.4584H12.3185V25.2084ZM10.8934 25.0057C11.1413 25.1314 11.3882 25.1737 11.6073 25.1918C11.8145 25.2091 12.061 25.2084 12.3185 25.2084V23.4584C12.0319 23.4584 11.8702 23.4577 11.7521 23.4478C11.6457 23.439 11.65 23.4273 11.6847 23.4448L10.8934 25.0057ZM10.1615 24.3434C10.342 24.6256 10.5947 24.8543 10.8934 25.0057L11.6847 23.4448C11.6648 23.4347 11.648 23.4195 11.6359 23.4007L10.1615 24.3434ZM9.81811 22.9455C9.84373 23.2018 9.86756 23.4471 9.90531 23.6516C9.9452 23.8678 10.0118 24.1093 10.1615 24.3434L11.6359 23.4007C11.6569 23.4334 11.6456 23.4389 11.6262 23.334C11.6047 23.2174 11.5879 23.0566 11.5594 22.7714L9.81811 22.9455ZM9.6636 21.6862C9.59983 21.6227 9.63462 21.598 9.68341 21.843C9.73051 22.0796 9.76494 22.4139 9.81811 22.9455L11.5594 22.7714C11.5099 22.2766 11.4674 21.8411 11.3997 21.5012C11.3337 21.1699 11.2159 20.7622 10.8983 20.446L9.6636 21.6862ZM9.57568 21.6497C9.60864 21.6498 9.64024 21.6629 9.6636 21.6862L10.8983 20.446C10.5479 20.0972 10.0739 19.9008 9.57949 19.8997L9.57568 21.6497ZM8.57592 22.431C8.98943 22.0927 9.25018 21.8806 9.45075 21.7467C9.65849 21.6079 9.66566 21.6499 9.57568 21.6497L9.57949 19.8997C9.13132 19.8988 8.75979 20.1037 8.47881 20.2914C8.19064 20.4838 7.85261 20.7617 7.46775 21.0766L8.57592 22.431ZM7.34461 23.1766C7.61601 23.1169 7.83391 22.9933 8.01497 22.8686C8.18629 22.7507 8.3766 22.5941 8.57592 22.431L7.46775 21.0766C7.24588 21.2581 7.12031 21.3599 7.02268 21.4271C6.93479 21.4876 6.93069 21.4758 6.96866 21.4675L7.34461 23.1766ZM6.35878 23.1274C6.6771 23.2316 7.01751 23.2486 7.34462 23.1766L6.96865 21.4675C6.94685 21.4723 6.92415 21.4711 6.90293 21.4642L6.35878 23.1274ZM5.2078 22.263C5.38989 22.4451 5.56367 22.6199 5.7224 22.7543C5.89015 22.8963 6.09467 23.041 6.35878 23.1274L6.90293 21.4642C6.93988 21.4763 6.93463 21.4876 6.85319 21.4187C6.76274 21.3421 6.64793 21.2283 6.44523 21.0256L5.2078 22.263ZM5.16799 22.2205L5.16801 22.2205L6.48501 21.0681L6.485 21.0681L5.16799 22.2205ZM4.23988 21.2951L5.20778 22.263L6.44521 21.0256L5.47732 20.0577L4.23988 21.2951ZM3.37547 20.1441C3.46188 20.4082 3.6066 20.6128 3.74863 20.7805C3.88302 20.9392 4.05779 21.113 4.23988 21.2951L5.47732 20.0577C5.27462 19.855 5.1608 19.7402 5.08421 19.6497C5.01527 19.5683 5.02663 19.563 5.03871 19.6L3.37547 20.1441ZM3.3263 19.1583C3.25434 19.4854 3.27132 19.8258 3.37547 20.1441L5.03872 19.6C5.03177 19.5787 5.03064 19.556 5.03544 19.5342L3.3263 19.1583ZM4.0719 17.927C3.90883 18.1263 3.75222 18.3166 3.63428 18.4879C3.50965 18.669 3.386 18.8869 3.3263 19.1583L5.03544 19.5342C5.02708 19.5722 5.01526 19.5681 5.07576 19.4802C5.14297 19.3826 5.2448 19.257 5.42633 19.0352L4.0719 17.927ZM4.85313 16.9273C4.85294 16.8373 4.89497 16.8444 4.75622 17.0522C4.62227 17.2527 4.41022 17.5135 4.0719 17.927L5.42633 19.0352C5.7412 18.6503 6.01904 18.3123 6.2115 18.0241C6.39915 17.7432 6.6041 17.3716 6.60313 16.9235L4.85313 16.9273ZM4.81671 16.8393C4.83997 16.8627 4.85306 16.8943 4.85313 16.9273L6.60313 16.9235C6.60207 16.429 6.40571 15.955 6.05681 15.6046L4.81671 16.8393ZM3.5574 16.6848C4.08902 16.738 4.42332 16.7724 4.65985 16.8195C4.90485 16.8683 4.8802 16.9031 4.81671 16.8393L6.05681 15.6046C5.7406 15.287 5.33299 15.1692 5.00162 15.1032C4.66178 15.0355 4.2263 14.993 3.73154 14.9435L3.5574 16.6848ZM2.15959 16.3414C2.3937 16.4911 2.6352 16.5577 2.85134 16.5976C3.05587 16.6354 3.30117 16.6592 3.5574 16.6848L3.73153 14.9435C3.44631 14.915 3.28551 14.8982 3.16896 14.8767C3.06404 14.8573 3.0695 14.8461 3.10225 14.867L2.15959 16.3414ZM1.4972 15.6095C1.64866 15.9083 1.87738 16.161 2.15959 16.3414L3.10225 14.867C3.08344 14.855 3.06819 14.8381 3.05809 14.8182L1.4972 15.6095ZM1.29459 14.1844C1.29459 14.442 1.29389 14.6884 1.31109 14.8957C1.32928 15.1147 1.37156 15.3617 1.4972 15.6095L3.05809 14.8182C3.07567 14.8529 3.06392 14.8572 3.05509 14.7509C3.04529 14.6328 3.04459 14.4711 3.04459 14.1844H1.29459ZM1.29459 12.8157V14.1844H3.04459V12.8157H1.29459ZM1.4973 11.3904C1.3716 11.6382 1.3293 11.8852 1.3111 12.1043C1.29389 12.3116 1.29459 12.5582 1.29459 12.8157H3.04459C3.04459 12.529 3.04529 12.3673 3.0551 12.2492C3.06393 12.1428 3.07569 12.1471 3.0581 12.1818L1.4973 11.3904ZM2.15942 10.6587C1.87734 10.8391 1.64872 11.0917 1.4973 11.3904L3.0581 12.1818C3.0682 12.1619 3.08344 12.1451 3.10224 12.133L2.15942 10.6587ZM3.55754 10.3152C3.30125 10.3408 3.05588 10.3647 2.85132 10.4024C2.63512 10.4423 2.39356 10.509 2.15941 10.6587L3.10224 12.133C3.06949 12.154 3.06402 12.1427 3.16897 12.1233C3.28554 12.1018 3.44637 12.085 3.73167 12.0565L3.55754 10.3152ZM4.81714 10.1607C4.88063 10.0969 4.9053 10.1317 4.66024 10.1805C4.42366 10.2276 4.08928 10.262 3.55754 10.3152L3.73167 12.0565C4.22655 12.007 4.66213 11.9645 5.00205 11.8968C5.3335 11.8308 5.7412 11.7129 6.05743 11.3952L4.81714 10.1607ZM4.85354 10.0728C4.85347 10.1057 4.84038 10.1373 4.81714 10.1607L6.05743 11.3952C6.40613 11.0449 6.6024 10.5711 6.60354 10.0768L4.85354 10.0728ZM4.07209 9.07274C4.41051 9.48636 4.62262 9.74718 4.7566 9.94779C4.89539 10.1556 4.85334 10.1628 4.85354 10.0728L6.60354 10.0768C6.60458 9.62854 6.39959 9.25692 6.2119 8.97587C6.0194 8.68764 5.74148 8.34953 5.42652 7.96457L4.07209 9.07274ZM3.32629 7.84102C3.38597 8.11251 3.50965 8.33049 3.63432 8.5116C3.75229 8.68298 3.90896 8.87336 4.07209 9.07274L5.42652 7.96457C5.24492 7.74263 5.14305 7.61701 5.07582 7.51934C5.0153 7.43141 5.02713 7.42731 5.03548 7.4653L3.32629 7.84102ZM3.37544 6.85568C3.27139 7.17385 3.25442 7.51407 3.32629 7.84102L5.03548 7.4653C5.03069 7.4435 5.03182 7.42082 5.03876 7.39961L3.37544 6.85568ZM4.24006 5.70431C4.05791 5.88647 3.88308 6.0603 3.74865 6.21909C3.60658 6.38689 3.46183 6.59148 3.37544 6.85568L5.03876 7.39961C5.02667 7.43657 5.0153 7.43131 5.08427 7.34985C5.16088 7.25937 5.27473 7.14452 5.4775 6.94175L4.24006 5.70431ZM5.20783 4.73655L4.24006 5.70431L5.4775 6.94175L6.44526 5.97399L5.20783 4.73655ZM6.35882 3.87213C6.09472 3.95853 5.8902 4.10325 5.72244 4.24528C5.56371 4.37968 5.38992 4.55445 5.20783 4.73655L6.44526 5.97399C6.64797 5.77128 6.76278 5.65746 6.85324 5.58087C6.93467 5.51192 6.93993 5.52328 6.90298 5.53537L6.35882 3.87213ZM7.34467 3.82296C7.01756 3.751 6.67715 3.76798 6.35882 3.87213L6.90298 5.53537C6.9242 5.52843 6.9469 5.5273 6.96871 5.5321L7.34467 3.82296ZM8.57605 4.56863C8.37671 4.40553 8.18638 4.2489 8.01505 4.13096C7.83399 4.00632 7.61607 3.88266 7.34467 3.82296L6.96871 5.5321C6.93072 5.52374 6.93483 5.51191 7.02274 5.57243C7.12039 5.63965 7.24599 5.74151 7.46788 5.92306L8.57605 4.56863ZM9.5757 5.34982C9.66568 5.34964 9.65851 5.39166 9.45077 5.2529C9.25022 5.11895 8.9895 4.90691 8.57605 4.56863L7.46788 5.92306C7.85269 6.2379 8.19066 6.51571 8.47877 6.70814C8.75968 6.89577 9.13112 7.10071 9.57918 7.09982L9.5757 5.34982ZM9.66366 5.31338C9.6403 5.33666 9.60868 5.34975 9.5757 5.34982L9.57918 7.09982C10.0739 7.09883 10.5481 6.90239 10.8986 6.55328L9.66366 5.31338ZM9.81812 4.05437C9.76497 4.58585 9.73055 4.92008 9.68347 5.15655C9.6347 5.4015 9.59993 5.37687 9.66366 5.31338L10.8986 6.55328C11.2161 6.2371 11.3338 5.82958 11.3998 5.49828C11.4674 5.15852 11.51 4.72315 11.5594 4.2285L9.81812 4.05437ZM9.81378 4.14143V4.14143H11.5638V4.14143H9.81378ZM10.1614 2.65686C10.0118 2.89093 9.94517 3.13238 9.90529 3.34847C9.86756 3.55295 9.84374 3.79819 9.81812 4.05436L11.5594 4.22849C11.588 3.94334 11.6047 3.78258 11.6262 3.66606C11.6456 3.56116 11.6569 3.56662 11.6359 3.59936L10.1614 2.65686ZM10.8936 1.99421C10.5947 2.14569 10.3419 2.37452 10.1614 2.65686L11.6359 3.59937C11.6479 3.58054 11.6648 3.56529 11.6847 3.55519L10.8936 1.99421ZM12.3184 1.79169C12.0609 1.79169 11.8145 1.79099 11.6073 1.80819C11.3883 1.82637 11.1414 1.86863 10.8936 1.99421L11.6847 3.55519C11.6501 3.57276 11.6458 3.56101 11.7521 3.55219C11.8701 3.54239 12.0318 3.54169 12.3184 3.54169V1.79169ZM13.6873 1.79169H12.3184V3.54169H13.6873V1.79169ZM15.1124 1.99431C14.8646 1.86866 14.6176 1.82638 14.3986 1.8082C14.1913 1.79099 13.9449 1.79169 13.6873 1.79169V3.54169C13.974 3.54169 14.1357 3.54239 14.2538 3.55219C14.3601 3.56102 14.3558 3.57277 14.3211 3.55519L15.1124 1.99431ZM15.8443 2.65668C15.6639 2.37448 15.4112 2.14576 15.1124 1.99431L14.3211 3.55519C14.341 3.56529 14.3579 3.58054 14.3699 3.59936L15.8443 2.65668ZM16.1877 4.05451C16.1621 3.79827 16.1383 3.55297 16.1005 3.34844C16.0606 3.1323 15.994 2.89079 15.8443 2.65669L14.3699 3.59935C14.349 3.5666 14.3602 3.56114 14.3796 3.66607C14.4011 3.78261 14.4179 3.94341 14.4464 4.22864L16.1877 4.05451ZM16.4613 13.5C16.4613 15.41 14.9129 16.9584 13.0029 16.9584V18.7084C15.8794 18.7084 18.2113 16.3765 18.2113 13.5H16.4613ZM13.0029 10.0417C14.9129 10.0417 16.4613 11.59 16.4613 13.5H18.2113C18.2113 10.6235 15.8794 8.29169 13.0029 8.29169V10.0417ZM9.54459 13.5C9.54459 11.59 11.0929 10.0417 13.0029 10.0417V8.29169C10.1264 8.29169 7.79459 10.6235 7.79459 13.5H9.54459ZM13.0029 16.9584C11.0929 16.9584 9.54459 15.41 9.54459 13.5H7.79459C7.79459 16.3765 10.1264 18.7084 13.0029 18.7084V16.9584Z" fill="black"/>
</svg>
